<?xml version="1.0" encoding="utf-8"?>
<!-- Generator: Adobe Illustrator 22.1.0, SVG Export Plug-In . SVG Version: 6.00 Build 0)  -->
<svg version="1.1" id="Слой_1" xmlns="http://www.w3.org/2000/svg" xmlns:xlink="http://www.w3.org/1999/xlink" x="0px" y="0px"
	 viewBox="0 0 512 512" style="enable-background:new 0 0 512 512;" xml:space="preserve">
<g>
	<path style="fill:#ffffff;" d="M262.2,458.6c79.6,0,190.7,1.9,231.1-79c15.3-30.9,18.7-66.6,18.7-100.3h0c0-44.2-12.3-86.3-41.6-120.6
		c16.8-50.4,5.5-80.1-7.4-105.6c-47.8,0-78.7,9-115,37.2c-58.6-13.9-124.9-12.2-180.4,0.9c-36.8-28.5-67.7-38-116.1-38
		c-13.2,26.4-24.2,55.4-7.3,106.2c-57.1,65.8-52.6,161.4-22.7,220.2C63.6,461.5,181.3,458.6,262.2,458.6L262.2,458.6z M149.4,245.5
		c20.3,0,39.8,3.6,59.7,6.3c72.9,11.1,111.3-6.3,155.9-6.3c49.9,0,78.4,40.9,78.4,87.2c0,92.8-85.7,106.9-160.6,106.9
		C231.2,436.2,71,460.5,71,332.7C71,286.4,99.4,245.5,149.4,245.5L149.4,245.5z"/>
	<path style="fill:#ffffff;" d="M355.3,390.9c27.5,0,39.1-36.1,39.1-58.2s-11.6-58.2-39.1-58.2s-39.1,36.1-39.1,58.2C316.2,354.8,327.8,390.9,355.3,390.9
		L355.3,390.9z"/>
	<path style="fill:#ffffff;" d="M159.4,390.9c27.5,0,39.1-36.1,39.1-58.2s-11.6-58.2-39.1-58.2s-39.1,36.1-39.1,58.2C120.2,354.8,131.8,390.9,159.4,390.9
		L159.4,390.9z"/>
</g>
</svg>
