<?xml version="1.0" encoding="utf-8"?>
<!-- Svg Vector Icons : http://www.onlinewebfonts.com/icon -->
<!DOCTYPE svg PUBLIC "-//W3C//DTD SVG 1.1//EN" "http://www.w3.org/Graphics/SVG/1.1/DTD/svg11.dtd">
<svg version="1.1" xmlns="http://www.w3.org/2000/svg" xmlns:xlink="http://www.w3.org/1999/xlink" x="0px" y="0px" viewBox="0 0 1000 1000" enable-background="new 0 0 1000 1000" xml:space="preserve">
<metadata> Svg Vector Icons : http://www.onlinewebfonts.com/icon </metadata>
<g><g transform="translate(0.000000,511.000000) scale(0.100000,-0.100000)"><path d="M4184.3,3106.4c-76.8-4.6-286.4-23.3-465.6-44.2c-1015.1-109.4-1734.5-391.1-2207.1-856.7c-377.2-377.2-582-859.1-633.3-1499.3l-16.3-214.2h4155.7h4155.7l-9.3,146.7c-53.6,721.7-251.5,1196.7-663.5,1587.8c-186.3,179.3-270.1,239.8-475,356.2c-500.5,281.7-1194.3,454-2083.7,516.8C5637.1,3120.4,4533.5,3125.1,4184.3,3106.4z M5860.6,2354.4c880-62.9,1566.8-242.1,1988.2-521.5c230.5-153.7,395.8-349.2,454-542.5l16.3-53.5H5022.4H1725.8l16.3,53.5C1926,1886.5,2841,2273,4277.4,2361.4C4568.4,2380.1,5564.9,2375.4,5860.6,2354.4z"/><path d="M389.4-64.5C14.6-239.1,0.6-774.6,366.2-970.1c46.6-25.6,158.3-41.9,335.3-48.9l265.4-14l51.2-153.7c72.2-214.2,230.5-502.9,358.5-654.2c486.6-570.4,1182.7-868.4,2353.7-1012.7c486.6-60.5,2093-58.2,2584.2,0c777.6,95.4,1322.4,256.1,1778.7,523.8c232.8,137.4,540.1,426,684.5,644.9c114.1,167.6,249.1,461,274.7,593.7l16.3,69.8h200.2c249.1,0,351.5,27.9,461,123.4c272.4,239.8,207.2,682.1-121.1,833.5c-88.5,41.9-263.1,44.2-4609.7,44.2C652.5-20.2,477.9-22.6,389.4-64.5z M8302.8-1072.5c-86.2-284-386.5-554.1-807.9-733.4c-521.5-221.2-1199-328.3-2193.1-349.2c-1715.8-34.9-2796.1,195.6-3306,703.1c-144.3,142-267.7,330.6-267.7,407.4c0,16.3,1089.6,23.3,3296.6,23.3h3294.3L8302.8-1072.5z"/></g></g>
</svg>