<?xml version="1.0" encoding="utf-8"?>
<!-- Svg Vector Icons : http://www.onlinewebfonts.com/icon -->
<!DOCTYPE svg PUBLIC "-//W3C//DTD SVG 1.1//EN" "http://www.w3.org/Graphics/SVG/1.1/DTD/svg11.dtd">
<svg version="1.1" xmlns="http://www.w3.org/2000/svg" xmlns:xlink="http://www.w3.org/1999/xlink" x="0px" y="0px" viewBox="0 0 1000 1000" enable-background="new 0 0 1000 1000" xml:space="preserve">
<metadata> Svg Vector Icons : http://www.onlinewebfonts.com/icon </metadata>
<g><g transform="translate(0.000000,511.000000) scale(0.100000,-0.100000)"><path d="M2936,4967.4c-360.9-94.6-687-308.8-916.7-596.3l-75.3-92.6l-245.1-5.8c-301-5.8-484.4-57.9-702.5-200.7C321,3631.9,184,2721,697.4,2097.7l86.8-106.1l7.7-2721.1c5.8-3018.3-1.9-2827.2,133.2-3082c117.7-220,341.6-382.1,565.4-409.1l106.1-13.5v-277.9V-4790h2508.8h2508.8v276v277.9l104.2,23.2c233.5,52.1,438.1,216.1,538.4,432.3c56,117.7,110,343.5,110,455.5c0,65.6,7.7,79.1,44.4,86.8c416.9,73.3,540.4,110,795.1,233.5c694.7,333.9,1213.9,1028.6,1374.1,1837.2c44.4,233.5,44.4,743,0,976.5c-129.3,648.4-484.4,1223.5-995.8,1605.6c-279.8,210.4-675.4,382.1-999.7,434.2c-231.6,36.7-218.1,30.9-218.1,117.7c0,67.5,15.4,96.5,94.6,189.1c218.1,250.9,314.6,497.9,318.4,802.8c1.9,229.7-25.1,353.2-123.5,559.7c-115.8,243.2-355.1,478.6-590.5,579c-187.2,81.1-266.3,94.6-509.5,96.5c-214.2,0-256.7-5.8-389.8-54l-148.6-54L5894.5,4207c-146.7,142.8-285.6,229.7-480.5,301c-127.4,46.3-166,52.1-401.4,50.2c-194.9,0-281.8-7.7-343.5-32.8l-81.1-30.9l-121.6,108.1c-162.1,144.7-362.8,258.6-588.6,333.9c-171.8,59.8-210.4,65.6-476.7,71.4C3144.4,5013.7,3092.3,5009.8,2936,4967.4z M3626.9,4714.5c287.5-59.8,519.1-185.3,737.2-401.4l152.5-152.5l108.1,50.2c281.8,125.4,633,106.1,887.7-50.2c113.9-69.5,268.3-227.7,341.6-347.4c38.6-61.7,71.4-111.9,77.2-111.9c3.9,0,54,28.9,110,65.6c387.9,248.9,870.4,196.8,1190.7-123.5c291.4-293.3,353.2-723.7,160.2-1109.7c-63.7-123.5-260.5-318.4-387.9-384c-366.7-185.3-814.4-123.5-1084.6,152.5l-84.9,86.8l79.1,67.5c137,117.7,314.6,351.2,314.6,416.8c0,73.3-61.7,133.2-137,133.2c-44.4,0-73.3-17.4-119.6-71.4c-131.2-158.2-416.9-422.6-507.6-472.8c-254.7-138.9-579-144.7-868.4-17.4l-81,36.7l-160.2-158.2c-185.3-179.5-345.4-279.8-567.4-353.2c-139-48.2-181.4-52.1-434.2-52.1c-368.6,0-501.8,40.5-843.4,258.6c-38.6,25.1-48.2,23.2-96.5-15.4c-193-154.4-403.3-237.4-633-249c-214.2-13.5-353.2,15.4-530.7,102.3C718.6,2281,512.1,2933.3,791.9,3456.3c169.8,320.4,563.5,553.9,934.1,553.9c46.3,0,83-5.8,83-13.5c0-9.6-17.4-61.7-40.5-119.6c-96.5-258.6-185.3-760.4-148.6-843.4c27-59.8,110-92.6,175.6-67.5c65.6,25.1,83,63.7,98.4,220c7.7,71.4,36.7,227.7,67.5,347.4c108.1,428.4,247,681.2,482.5,874.2C2777.7,4685.6,3223.5,4801.4,3626.9,4714.5z M5718.8,2101.5c243.2-227.7,511.4-333.9,837.6-333.9c193,0,250.9,11.6,507.5,94.6c32.8,9.7,32.8-110,29-2649.7c-5.8-2477.9-7.7-2669-40.5-2761.6c-52.1-156.3-144.7-274-264.4-341.6l-106.1-59.8l-2537.8-5.8c-1752.3-3.9-2568.6,1.9-2638.1,15.4c-198.8,42.5-345.4,204.6-399.5,445.8c-27,115.8-30.9,445.8-30.9,2701.8c0,2439.3,1.9,2568.6,34.7,2555.1c287.6-121.6,528.8-160.2,770-127.4c179.5,25.1,416.8,108.1,526.8,181.4l65.6,46.3l156.3-73.3c250.9-121.6,420.7-158.2,723.7-158.2c204.6,0,293.3,9.6,414.9,42.5c216.1,56,486.3,194.9,669.7,341.6l154.4,125.4l119.6-29c239.3-59.8,580.9-32.8,791.2,63.7c44.4,21.2,83,38.6,86.8,38.6C5593.4,2215.4,5651.3,2163.3,5718.8,2101.5z M7745.2,1549.6c366.7-106.1,698.6-310.7,978.4-606C9601.7,21.1,9570.8-1486.1,8658-2368c-328.1-316.5-646.5-490.2-1065.3-579c-233.5-50.2-225.8-56-225.8,140.9v169.8l189.1,42.5c472.8,108.1,874.2,386,1148.3,799c129.3,193,212.3,382.1,277.9,631.1c42.5,160.2,50.2,225.8,50.2,484.4c0,262.5-7.7,324.2-52.1,492.1c-200.7,768.1-787.4,1316.2-1540,1445.5l-73.3,13.5v175.6v175.6l104.2-13.5C7527.1,1603.6,7650.7,1576.6,7745.2,1549.6z M7575.4,941.7c511.4-142.8,930.2-553.9,1100-1080.7c113.9-355.1,110-768.1-11.6-1119.3c-179.5-515.3-607.9-918.6-1115.5-1051.8c-61.7-15.4-127.4-28.9-146.7-28.9c-32.8,0-34.7,77.2-34.7,1659.7c0,1574.8,1.9,1659.7,34.7,1659.7C7419.1,980.3,7498.2,962.9,7575.4,941.7z M6324.8-4375.1v-144.7H4105.5H1886.1v144.7v144.7h2219.3h2219.3V-4375.1z"/><path d="M2177.6,930.1c-40.5-52.1-40.5-56-40.5-2109.3c0-2045.7,0-2059.2,38.6-2101.6c52.1-56,154.4-56,204.6-1.9c34.7,38.6,36.7,102.3,36.7,2115.1V906.9l-46.3,36.7C2304.9,995.7,2225.8,989.9,2177.6,930.1z"/><path d="M3389.5,943.6l-46.3-36.7v-2074.6c0-2012.8,1.9-2076.5,36.7-2115.1c50.2-54,152.5-54,204.6,1.9c38.6,42.5,38.6,56,38.6,2101.6c0,2053.4,0,2057.2-40.5,2109.3C3534.2,989.9,3455.1,995.7,3389.5,943.6z"/><path d="M4587.9,941.7c-38.6-38.6-38.6-63.7-38.6-2109.3c0-2315.8-9.6-2155.7,135.1-2155.7c144.7,0,135.1-160.2,135.1,2155.7c0,2045.6,0,2070.7-38.6,2109.3c-21.2,21.2-63.7,38.6-96.5,38.6C4651.6,980.3,4609.2,962.9,4587.9,941.7z"/><path d="M5786.4,930.1c-40.5-52.1-40.5-56-40.5-2109.3c0-2045.7,0-2059.2,38.6-2101.6c52.1-56,154.4-56,204.6-1.9c34.7,38.6,36.7,102.3,36.7,2115.1V906.9l-46.3,36.7C5913.8,995.7,5834.6,989.9,5786.4,930.1z"/></g></g>
</svg>