<?xml version="1.0" encoding="utf-8"?>
<!-- Svg Vector Icons : http://www.onlinewebfonts.com/icon -->
<!DOCTYPE svg PUBLIC "-//W3C//DTD SVG 1.1//EN" "http://www.w3.org/Graphics/SVG/1.1/DTD/svg11.dtd">
<svg version="1.1" xmlns="http://www.w3.org/2000/svg" xmlns:xlink="http://www.w3.org/1999/xlink" x="0px" y="0px" viewBox="0 0 1000 1000" enable-background="new 0 0 1000 1000" xml:space="preserve">
<metadata> Svg Vector Icons : http://www.onlinewebfonts.com/icon </metadata>
<g><g transform="translate(0.000000,511.000000) scale(0.100000,-0.100000)"><path d="M3009.7,3280.5c0-1671.4,2.3-1734.2,46.6-1869.2c62.9-186.2,193.2-351.5,365.5-463.2l144.3-93.1v-2695.6c2.3-2625.7,4.7-2697.9,48.9-2784.1c55.9-111.7,162.9-165.3,330.6-165.3c153.6,0,267.7,58.2,325.9,165.3c39.6,74.5,41.9,207.2,41.9,2781.7V861.9l74.5,30.3c114.1,46.6,328.2,272.3,398,419c32.6,72.2,72.2,197.9,83.8,279.3c16.3,93.1,25.6,763.5,25.6,1785.4V5010h-197.9h-197.9V3857.8V2703.2l-58.2-55.9c-97.8-100.1-244.4-67.5-288.6,60.5c-16.3,51.2-25.6,435.3-25.6,1187.2v1115h-186.2h-186.2V3881c0-947.4-4.7-1142.9-34.9-1196.5c-55.9-111.7-188.6-130.4-279.3-37.2l-58.2,55.9v1154.6V5010H3196h-186.2V3280.5z"/><path d="M6792.4,4963.4c-379.4-181.6-714.6-882.2-966-2013.5c-186.2-842.7-325.9-2085.7-325.9-2902.8v-297.9h372.4h372.5v-2134.6c0-1987.9,2.3-2141.6,41.9-2218.4c60.5-121.1,172.3-186.2,323.6-186.2c162.9,0,274.7,48.9,332.9,144.3c46.6,76.8,46.6,102.4,46.6,4867.4V5010H6939C6908.8,5010,6843.6,4989.1,6792.4,4963.4z"/></g></g>
</svg>