<?xml version="1.0" encoding="utf-8"?>
<!-- Svg Vector Icons : http://www.onlinewebfonts.com/icon -->
<!DOCTYPE svg PUBLIC "-//W3C//DTD SVG 1.1//EN" "http://www.w3.org/Graphics/SVG/1.1/DTD/svg11.dtd">
<svg version="1.1" xmlns="http://www.w3.org/2000/svg" xmlns:xlink="http://www.w3.org/1999/xlink" x="0px" y="0px" viewBox="0 0 1000 1000" enable-background="new 0 0 1000 1000" xml:space="preserve">
<metadata> Svg Vector Icons : http://www.onlinewebfonts.com/icon </metadata>
<g><g transform="translate(0.000000,511.000000) scale(0.100000,-0.100000)"><path d="M4292.3,4756c-58.3-6.2-258-27.7-445.3-43c-436.1-43-1148.6-187.3-1520.3-307.1c-958.2-313.3-1664.6-841.5-1981-1483.4C152.2,2529.4,103.1,2314.4,100,1872.1c0-310.2,12.3-402.3,73.7-577.4C272,999.9,502.3,671.2,800.2,397.9l251.9-236.5l15.4-2045.4l15.4-2048.5l70.6-129c86-165.8,248.8-328.6,414.6-414.6l129-70.6h3301.6h3301.6l129,70.6c165.8,86,328.6,248.8,414.6,414.6l70.6,129l15.4,2048.5l15.4,2045.4l251.8,236.5c297.9,273.3,528.3,602,626.5,896.8c101.4,291.8,101.4,835.4,3.1,1188.6c-208.8,727.9-718.7,1280.7-1551,1676.9c-549.8,261.1-1182.4,433.1-1990.2,540.6C5926.2,4746.8,4547.2,4786.7,4292.3,4756z M6319.3,4451.9c1016.6-132.1,1833.5-405.4,2377.2-795.4c288.7-205.8,605-562.1,734-823.1c141.3-285.6,202.7-522.1,227.3-869.2c36.9-583.5-193.5-1041.1-752.5-1501.8l-221.1-178.2v-2054.6c0-1787.5-6.1-2073.1-46.1-2171.4c-64.5-150.5-159.7-248.8-307.1-316.3c-116.7-55.3-276.4-58.4-3332.3-58.4s-3215.6,3.1-3332.3,58.4c-147.4,67.6-242.6,165.8-307.1,316.3c-39.9,98.3-46.1,383.9-46.1,2171.4V284.3L1092,462.4c-559,457.6-789.3,918.3-752.5,1501.8c33.8,543.6,205.8,952.1,552.8,1323.7c473,506.8,1108.7,829.2,2048.5,1035c322.5,70.7,912.2,156.7,1305.3,187.4C4608.6,4537.9,5950.7,4501.1,6319.3,4451.9z"/><path d="M4138.7,3880.7c-1449.6-125.9-2484.6-537.5-2905.4-1154.8c-202.7-294.8-267.2-494.5-270.3-838.4c-3.1-261.1,6.1-307.1,79.9-448.4c89.1-168.9,353.2-448.4,571.2-605c73.7-52.2,172-159.7,215-236.5l82.9-138.2l9.2-2039.3c6.1-1422,18.4-2054.7,43-2082.3c46.1-55.3,6013.5-58.3,6068.8-3.1c27.6,27.7,36.9,522.1,36.9,2033.2C8073-7.5,8079.1,391.7,8116,490c27.6,86,107.5,178.1,251.8,307.1c506.8,445.3,651.1,657.3,678.7,982.8c43,555.9-310.2,1154.8-872.2,1480.4C7606.2,3592,6792.3,3807,5815.6,3883.8C5361.1,3917.6,4565.6,3917.6,4138.7,3880.7z M6356.2,3576.6c1305.3-196.5,2122.2-629.6,2358.7-1250c36.9-98.3,76.8-276.4,86-399.3c21.5-347.1-21.5-414.6-651.1-985.9c-86-76.8-178.1-202.7-227.3-307.1l-82.9-175.1l-9.2-1956.4l-9.2-1959.5H4998.7H2176.2l-9.2,1971.7L2157.7,490l-107.5,196.6c-76.8,141.3-159.7,239.6-307.1,356.3c-254.9,202.7-454.5,420.8-509.8,552.8c-89.1,211.9-27.6,632.7,132.1,906c350.1,592.7,1360.6,1007.4,2773.3,1136.4C4639.3,3684.1,5877,3650.4,6356.2,3576.6z"/><path d="M2980.8,1518.9c-199.6-119.8-193.5-58.3-193.5-2033.2c0-1722.9,3.1-1793.6,61.4-1888.8c64.5-104.4,202.7-193.5,307.1-193.5s242.6,89.1,307.1,193.5c58.3,95.2,61.4,165.9,61.4,1895c0,1729.1-3.1,1799.8-61.4,1895c-64.5,107.5-202.7,193.5-313.3,193.5C3109.8,1580.3,3036.1,1552.7,2980.8,1518.9z M3245,1291.6c24.6-27.6,30.7-531.3,27.6-1815.1c-9.2-1652.3-12.3-1778.2-61.4-1808.9c-39.9-24.6-70.6-24.6-107.5,0c-52.2,30.7-55.3,156.6-64.5,1808.9c-3.1,1283.8,3.1,1787.5,27.6,1815.1c18.4,24.6,58.3,43,89.1,43S3226.5,1316.2,3245,1291.6z"/><path d="M4209.3,1518.9c-199.6-119.8-193.5-58.3-193.5-2033.2c0-1722.9,3.1-1793.6,61.4-1888.8c64.5-104.4,202.7-193.5,307.1-193.5s242.6,89.1,307.1,193.5c58.3,95.2,61.4,165.9,61.4,1895c0,1729.1-3.1,1799.8-61.4,1895c-64.5,107.5-202.7,193.5-313.3,193.5C4338.3,1580.3,4264.6,1552.7,4209.3,1518.9z M4473.5,1291.6c24.6-27.6,30.7-531.3,27.6-1815.1c-9.2-1652.3-12.3-1778.2-61.4-1808.9c-39.9-24.6-70.6-24.6-107.5,0c-52.2,30.7-55.3,156.6-64.5,1808.9c-3.1,1283.8,3.1,1787.5,27.6,1815.1c18.4,24.6,58.3,43,89.1,43S4455,1316.2,4473.5,1291.6z"/><path d="M5437.8,1518.9c-199.6-119.8-193.5-58.3-193.5-2033.2c0-1722.9,3-1793.6,61.4-1888.8c64.5-104.4,202.7-193.5,307.1-193.5s242.6,89.1,307.1,193.5c58.4,95.2,61.4,165.9,61.4,1895c0,1729.1-3,1799.8-61.4,1895c-64.5,107.5-202.7,193.5-313.3,193.5C5566.8,1580.3,5493.1,1552.7,5437.8,1518.9z M5702,1291.6c24.6-27.6,30.7-531.3,27.6-1815.1c-9.2-1652.3-12.3-1778.2-61.4-1808.9c-39.9-24.6-70.6-24.6-107.5,0c-52.2,30.7-55.3,156.6-64.5,1808.9c-3.1,1283.8,3.1,1787.5,27.6,1815.1c18.4,24.6,58.4,43,89.1,43S5683.5,1316.2,5702,1291.6z"/><path d="M6666.3,1518.9c-199.6-119.8-193.5-58.3-193.5-2033.2c0-1722.9,3.1-1793.6,61.4-1888.8c64.5-104.4,202.7-193.5,307.1-193.5s242.6,89.1,307.1,193.5c58.4,95.2,61.4,165.9,61.4,1895c0,1729.1-3.1,1799.8-61.4,1895c-64.5,107.5-202.7,193.5-313.3,193.5C6795.3,1580.3,6721.6,1552.7,6666.3,1518.9z M6930.5,1291.6c24.6-27.6,30.7-531.3,27.6-1815.1c-9.2-1652.3-12.3-1778.2-61.4-1808.9c-39.9-24.6-70.6-24.6-107.5,0c-52.2,30.7-55.3,156.6-64.5,1808.9c-3.1,1283.8,3,1787.5,27.6,1815.1c18.4,24.6,58.4,43,89.1,43C6872.1,1334.6,6912,1316.2,6930.5,1291.6z"/></g></g>
</svg>