<?xml version="1.0" encoding="utf-8"?>
<!-- Generator: Adobe Illustrator 22.1.0, SVG Export Plug-In . SVG Version: 6.00 Build 0)  -->
<svg version="1.1" id="Слой_1" xmlns="http://www.w3.org/2000/svg" xmlns:xlink="http://www.w3.org/1999/xlink" x="0px" y="0px"
	 viewBox="0 0 682 682" style="enable-background:new 0 0 682 682;" xml:space="preserve">

<path style="fill:#ffffff;" d="M98.5,34.6C51.6,34.6,21,65.4,21,105.9c0,39.6,29.7,71.2,75.7,71.2h0.9c47.8,0,77.5-31.7,77.5-71.2
	C174.3,65.4,145.4,34.6,98.5,34.6z"/>
<path style="fill:#ffffff;" d="M29.1,233.4h137.1v412.4H29.1V233.4z"/>
<path style="fill:#ffffff;" d="M502.6,223.7c-73.9,0-123.5,69.5-123.5,69.5v-59.8H242v412.4H379V415.5c0-12.3,0.9-24.6,4.5-33.5
	c9.9-24.6,32.5-50.1,70.3-50.1c49.6,0,69.4,37.8,69.4,93.2v220.6h137V409.3C660.4,282.7,592.7,223.7,502.6,223.7z"/>
</svg>
